<svg width="120" height="120" viewBox="0 0 120 120" fill="none" xmlns="http://www.w3.org/2000/svg">
<g clip-path="url(#clip0_2250_58935)">
<path d="M108.107 101.551C92.5028 131.729 58.3144 145.111 31.7452 131.441C5.17606 117.771 -3.71278 82.226 11.8915 52.0488C27.4957 21.8716 61.684 8.48959 88.2532 22.1593C114.822 35.8291 123.711 71.3741 108.107 101.551Z" fill="#FAFAFA"/>
<line y1="120.1" x2="120" y2="120.1" stroke="#DEDEDE"/>
<g opacity="0.1" filter="url(#filter0_f_2250_58935)">
<ellipse cx="58.8008" cy="121.8" rx="48" ry="9" fill="#3E3E3E"/>
</g>
<path d="M81.2277 125.331L80.6102 122.154C80.4606 121.384 80.9611 120.642 81.7307 120.493L87.534 119.364C88.2683 119.222 89.036 119.666 89.2833 120.373L90.3625 123.475C90.4931 123.845 90.4599 124.24 90.2663 124.563C90.0798 124.885 89.7583 125.116 89.3771 125.19L82.8889 126.451C82.1264 126.599 81.3773 126.1 81.2277 125.331ZM81.9696 121.684C81.8567 121.706 81.7898 121.815 81.8104 121.92L82.428 125.097C82.4485 125.203 82.5581 125.277 82.664 125.257L89.1522 123.996C89.1734 123.991 89.2087 123.985 89.2244 123.952C89.2415 123.927 89.2275 123.893 89.2234 123.872L88.1429 120.763C88.0942 120.626 87.9128 120.522 87.7716 120.549L81.9683 121.677L81.9696 121.684Z" fill="#414042"/>
<path d="M80.2708 120.565L79.575 116.986C79.4268 116.223 79.926 115.474 80.6955 115.324L85.807 114.331C86.5412 114.188 87.3103 114.639 87.5505 115.347L88.7291 118.848C88.8513 119.212 88.8181 119.607 88.6245 119.93C88.438 120.252 88.1095 120.485 87.7353 120.557L81.932 121.685C81.1695 121.834 80.419 121.327 80.2708 120.565ZM80.9345 116.516C80.8215 116.538 80.7547 116.646 80.7753 116.752L81.471 120.332C81.4916 120.438 81.6012 120.512 81.7071 120.491L87.5105 119.363C87.5387 119.357 87.574 119.351 87.5897 119.318C87.6068 119.293 87.5999 119.258 87.5944 119.229L86.4158 115.729C86.3686 115.599 86.1942 115.494 86.053 115.521L80.9345 116.516Z" fill="#414042"/>
<path d="M68.801 124.244L62.9977 125.372C62.6164 125.446 62.2262 125.36 61.9312 125.125C61.6377 124.896 61.452 124.544 61.4287 124.16L61.2102 120.473C61.1677 119.727 61.7047 119.022 62.446 118.877L67.5646 117.882C68.327 117.734 69.0775 118.24 69.2257 119.003L69.9215 122.582C70.0697 123.345 69.5635 124.095 68.801 124.244ZM62.678 120.071C62.5368 120.098 62.4132 120.254 62.4195 120.399L62.6379 124.086C62.6363 124.116 62.6488 124.143 62.6685 124.168C62.6951 124.192 62.7304 124.185 62.7587 124.18L68.562 123.052C68.6679 123.031 68.7419 122.922 68.7213 122.816L68.0255 119.236C68.0049 119.13 67.8953 119.056 67.7894 119.077L62.678 120.071Z" fill="#414042"/>
<path d="M69.4973 45.8695C70.1268 45.7911 70.6583 45.849 70.673 46C70.6877 46.151 70.1917 46.5772 69.5596 46.6048C68.9276 46.6324 68.4004 46.559 68.3926 46.4433C68.3848 46.3276 68.8678 45.948 69.4973 45.8695Z" fill="#414042"/>
<path d="M69.5797 46.9021C68.1279 46.9718 68.1073 46.6022 68.1011 46.4569C68.0821 46.0576 68.809 45.6891 69.3244 45.589C69.3738 45.5794 69.4162 45.5711 69.4656 45.5615C69.7084 45.529 70.5142 45.4529 70.8247 45.693C70.9117 45.764 70.9662 45.856 70.9713 45.9575C71.0186 46.3513 70.4098 46.7627 69.845 46.8725C69.7603 46.889 69.6742 46.8984 69.5797 46.9021ZM69.5456 46.1614C69.3607 46.19 69.1869 46.2385 69.0526 46.3012C69.1936 46.3104 69.3544 46.3085 69.5505 46.2997C69.7833 46.2911 69.9953 46.2132 70.1396 46.1265C69.9859 46.1271 69.7884 46.1289 69.5456 46.1614Z" fill="#414042"/>
<path d="M69.5753 46.938C68.0868 47.0075 68.0635 46.6238 68.0531 46.4573C68.03 46.0368 68.7825 45.6487 69.305 45.5472C69.3544 45.5376 69.4038 45.528 69.4546 45.5254C69.7694 45.4862 70.5328 45.4184 70.8446 45.6655C70.9401 45.7422 70.996 45.8413 71.0109 45.9556C71.0525 46.3578 70.4253 46.7875 69.8463 46.9C69.7559 46.9249 69.6698 46.9343 69.5753 46.938Z" fill="#414042"/>
<path d="M69.5976 47.243C68.3631 47.2998 67.7973 47.0655 67.7638 46.4785C67.7252 45.79 68.7533 45.3117 69.4265 45.2321C70.2057 45.132 70.7469 45.2026 71.0419 45.4383C71.1978 45.5619 71.2984 45.7402 71.3142 45.9349C71.376 46.5164 70.6325 47.0639 69.9053 47.2052C69.8135 47.2231 69.7062 47.2366 69.5976 47.243ZM68.3649 46.4423C68.3726 46.5946 68.8573 46.6762 69.5684 46.6406C70.1977 46.5989 70.7388 46.1786 70.7243 45.991C70.7175 45.9557 70.6979 45.9302 70.6712 45.906C70.5504 45.8123 70.1431 45.7523 69.5051 45.825C69.4628 45.8332 69.4204 45.8414 69.3781 45.8497C68.8274 45.9567 68.3587 46.2969 68.3649 46.4423Z" fill="#414042"/>
<path d="M51.1028 49.4397C51.7323 49.3613 52.2567 49.4206 52.2785 49.5702C52.2932 49.7212 51.7972 50.1473 51.1651 50.175C50.533 50.2026 50.0059 50.1292 49.9981 50.0135C49.9902 49.8978 50.4733 49.5181 51.1028 49.4397Z" fill="#414042"/>
<path d="M51.1851 50.4723C49.7333 50.542 49.7114 50.1653 49.7065 50.027C49.6875 49.6278 50.4145 49.2593 50.9299 49.1591C50.9793 49.1495 51.0217 49.1413 51.0711 49.1317C51.3139 49.0992 52.1197 49.0231 52.4301 49.2632C52.5172 49.3342 52.5717 49.4262 52.5768 49.5277C52.6156 49.9158 52.0139 50.3259 51.4421 50.437C51.3587 50.4606 51.2726 50.47 51.1851 50.4723ZM51.144 49.733C50.9591 49.7616 50.7924 49.8087 50.651 49.8728C50.792 49.882 50.9599 49.8787 51.1489 49.8712C51.3817 49.8626 51.5866 49.7861 51.738 49.6981C51.5913 49.6973 51.3939 49.6991 51.144 49.733Z" fill="#414042"/>
<path d="M51.212 50.5086C49.7235 50.5781 49.7002 50.1943 49.6899 50.0278C49.6667 49.6074 50.4192 49.2193 50.9416 49.1178C50.9911 49.1082 51.0405 49.0985 51.0913 49.096C51.4061 49.0568 52.1695 48.989 52.4813 49.2361C52.5768 49.3128 52.6327 49.4118 52.6476 49.5262C52.6892 49.9284 52.069 50.3567 51.483 50.4706C51.3926 50.4955 51.3065 50.5049 51.212 50.5086Z" fill="#414042"/>
<path d="M51.2343 50.8136C49.9998 50.8704 49.4341 50.636 49.4006 50.0491C49.362 49.3605 50.4041 48.8795 51.0633 48.8027C51.5996 48.7351 52.3135 48.7135 52.6786 49.0089C52.8359 49.1395 52.9351 49.3107 52.951 49.5055C53.0127 50.0869 52.2692 50.6344 51.5421 50.7758C51.4503 50.7936 51.343 50.8071 51.2343 50.8136ZM50.0016 50.0128C50.0093 50.1652 50.4941 50.2468 51.1981 50.2125C51.8274 50.1708 52.3756 49.7492 52.354 49.5629C52.3472 49.5276 52.3346 49.5007 52.3008 49.478C52.18 49.3842 51.7728 49.3242 51.1278 49.3983C51.0925 49.4051 51.0501 49.4134 51.0077 49.4216C50.4641 49.5273 49.9954 49.8675 50.0016 50.0128Z" fill="#414042"/>
<path d="M69.5499 42.2993C69.6197 42.4323 69.2173 42.7743 68.646 43.0392C68.0775 43.3182 67.5619 43.4551 67.5046 43.349C67.4474 43.2429 67.7324 42.7113 68.2799 42.3997C68.8261 42.081 69.4801 42.1664 69.5499 42.2993Z" fill="#414042"/>
<path d="M67.2447 43.4955C67.0519 43.1447 67.5719 42.4648 68.1322 42.1434C68.3161 42.0344 68.514 41.9593 68.7329 41.9167C69.0364 41.8577 69.6473 41.8342 69.8205 42.1596C69.8679 42.253 69.8814 42.3602 69.8442 42.47C69.7194 42.846 68.9995 43.2131 68.7845 43.3135C68.4225 43.4864 68.0748 43.6199 67.8206 43.6693C67.7147 43.6899 67.3829 43.7544 67.2447 43.4955ZM68.4382 42.6627C68.2741 42.7606 68.1409 42.8671 68.0458 42.9808C68.197 42.9294 68.3596 42.8612 68.5265 42.7775C68.7344 42.6784 68.9056 42.5792 69.0344 42.4882C68.8454 42.4957 68.6151 42.5551 68.4382 42.6627Z" fill="#414042"/>
<path d="M67.2051 43.5094C66.9872 43.1048 67.5919 42.4084 68.1112 42.1023C68.2965 42.0004 68.5001 41.9168 68.719 41.8743C69.0296 41.8139 69.663 41.7934 69.8474 42.1385C69.9032 42.2376 69.9125 42.3603 69.8752 42.4702C69.7504 42.8461 69.0728 43.2049 68.7914 43.3402C68.4294 43.5132 68.0733 43.641 67.8191 43.6904C67.5112 43.7649 67.3084 43.7018 67.2051 43.5094Z" fill="#414042"/>
<path d="M66.9447 43.6563C66.6235 43.0593 67.3248 42.2196 67.963 41.8464C68.1865 41.715 68.4268 41.6317 68.6668 41.585C68.7798 41.5631 69.7864 41.3894 70.1188 42.0062C70.211 42.1788 70.2282 42.3806 70.1637 42.5763C70.0489 42.9283 69.6267 43.2815 68.9238 43.6232C68.542 43.8074 68.1589 43.9477 67.8765 44.0026C67.2892 44.1095 67.0452 43.8345 66.9447 43.6563ZM68.2691 42.3657C67.7568 42.6705 67.3942 43.2172 67.4751 43.37C67.5171 43.4351 67.6554 43.4302 67.7683 43.4082C67.9943 43.3643 68.3363 43.2392 68.6644 43.0802C69.24 42.7998 69.5461 42.5278 69.592 42.387C69.6063 42.3476 69.6065 42.3109 69.5869 42.2854C69.5185 42.1595 69.1337 42.1024 68.7807 42.171C68.6042 42.2053 68.4275 42.2763 68.2691 42.3657Z" fill="#414042"/>
<path d="M62.1457 39.4648C62.0232 39.4374 62.0273 38.931 62.1532 38.335C62.2792 37.7391 62.5102 37.2692 62.6624 37.2982C62.8159 37.3343 63.0738 37.907 62.9028 38.4971C62.7246 39.0885 62.2669 39.4852 62.1457 39.4648Z" fill="#414042"/>
<path d="M62.0892 39.7623L61.9245 39.7064L61.8531 39.603C61.6657 39.3171 61.7924 38.5744 61.8589 38.2757C61.9501 37.8404 62.1629 37.0883 62.5724 37.0087L62.6656 36.9979L62.7262 37.0081C62.8558 37.0342 62.9695 37.1294 63.066 37.2864C63.2393 37.5751 63.3466 38.0891 63.1944 38.5876C63.0106 39.1875 62.5395 39.704 62.2359 39.7631C62.1851 39.7656 62.1414 39.7668 62.0892 39.7623ZM62.4535 38.3946C62.4115 38.5933 62.3852 38.7596 62.3746 38.8935C62.467 38.7657 62.5596 38.6011 62.617 38.4068C62.6831 38.1815 62.6702 37.9642 62.6302 37.7961C62.5716 37.9467 62.507 38.1424 62.4535 38.3946Z" fill="#414042"/>
<path d="M62.0785 39.7936L61.8982 39.7334L61.8171 39.6173C61.6296 39.3313 61.7377 38.6436 61.8173 38.2618C61.9129 37.8109 62.1327 37.0575 62.5634 36.9738L62.7242 36.9718C62.8679 36.9952 62.9901 37.096 63.088 37.2601C63.2698 37.5545 63.3797 38.0826 63.2232 38.5966C63.0308 39.2275 62.5499 39.7313 62.2322 39.793C62.1828 39.8026 62.132 39.8052 62.0785 39.7936Z" fill="#414042"/>
<path d="M61.9933 40.082L61.7187 39.9888L61.583 39.7807C61.3885 39.4962 61.3802 38.9629 61.5394 38.1993C61.7348 37.2821 62.0606 36.7718 62.5689 36.673L62.576 36.6716L62.7368 36.6697L62.8031 36.6715C62.9623 36.6991 63.1804 36.8033 63.3635 37.1047C63.5592 37.433 63.721 38.039 63.5313 38.684C63.3273 39.3684 62.7752 39.9959 62.3092 40.0865C62.2104 40.1057 62.1229 40.1081 61.9933 40.082ZM62.6334 37.2686C62.4851 37.2974 62.2661 37.6404 62.1213 38.328C61.9736 39.0381 62.0239 39.3726 62.0771 39.4576L62.1375 39.5044C62.2967 39.5321 62.7588 39.1199 62.9412 38.513C63.0704 38.0849 62.9783 37.6485 62.8385 37.4192C62.7938 37.34 62.7405 37.2918 62.6926 37.2718L62.6334 37.2686Z" fill="#414042"/>
<path d="M58.8024 39.464C58.6838 39.4944 58.469 39.0306 58.3312 38.4346C58.1948 37.8457 58.2046 37.3309 58.367 37.2993C58.5223 37.2692 59.0066 37.6879 59.095 38.2935C59.175 38.8934 58.9211 39.4336 58.8024 39.464Z" fill="#414042"/>
<path d="M58.0435 38.5062C57.9925 38.2817 57.8387 37.5276 58.0521 37.1931C58.1133 37.0932 58.2038 37.0317 58.3084 37.004C58.4425 36.978 58.5833 37.0238 58.7281 37.1276C58.9824 37.3053 59.3103 37.7105 59.3863 38.2525C59.4747 38.8581 59.2531 39.6778 58.8661 39.7604L58.8591 39.7618C58.7391 39.7851 58.3564 39.8521 58.0435 38.5062ZM58.6254 38.3711C58.6722 38.5745 58.7277 38.7469 58.775 38.8769C58.804 38.7247 58.8248 38.5302 58.7948 38.3382C58.7623 38.0954 58.6435 37.8987 58.5384 37.7726C58.5433 37.9108 58.5689 38.1183 58.6254 38.3711Z" fill="#414042"/>
<path d="M57.9976 38.5145C57.9272 38.2278 57.7957 37.5134 58.0147 37.1704C58.083 37.0692 58.1779 36.9921 58.2979 36.9688C58.4391 36.9414 58.587 36.9859 58.7486 37.101C59.0043 37.2858 59.3406 37.6966 59.418 38.2458C59.5106 38.8725 59.2846 39.7077 58.8694 39.7958L58.8624 39.7971C58.7282 39.8232 58.3244 39.8944 57.9976 38.5145Z" fill="#414042"/>
<path d="M57.7157 38.5776C57.622 38.1709 57.4991 37.4254 57.7679 36.9995C57.8817 36.8309 58.0488 36.7105 58.2465 36.672C58.4653 36.6295 58.6963 36.6872 58.9268 36.8549C59.2499 37.0851 59.6353 37.5597 59.7235 38.202C59.8199 38.8866 59.6012 39.9475 58.9333 40.092L58.9262 40.0934C58.1919 40.2361 57.8768 39.2936 57.7157 38.5776ZM58.2712 37.3266C58.1631 37.4869 58.1776 37.9383 58.2976 38.4425C58.4754 39.2066 58.6909 39.5237 58.8109 39.5004L58.8685 39.7969L58.8109 39.5004C58.9662 39.4702 59.2106 38.8805 59.132 38.2876C59.0654 37.8317 58.795 37.4959 58.5828 37.3467C58.49 37.2841 58.4112 37.2555 58.3617 37.2651C58.3264 37.2719 58.2939 37.2929 58.2712 37.3266Z" fill="#414042"/>
<path d="M54.8045 40.0228C54.4249 39.5398 54.2243 39.0733 54.3531 38.9823C54.482 38.8913 55.1058 39.0851 55.4401 39.5989C55.7745 40.1127 55.9609 40.582 55.8576 40.6534C55.7585 40.7093 55.1842 40.5059 54.8045 40.0228Z" fill="#414042"/>
<path d="M54.5744 40.2076C54.4287 40.0235 53.9694 39.3947 54.0251 39.0029C54.0398 38.8901 54.101 38.7903 54.1859 38.7372L54.2779 38.6827L54.3415 38.6703C54.6592 38.6086 55.3249 38.8675 55.6914 39.4337C55.8593 39.6941 56.2479 40.3366 56.1728 40.6662L56.1239 40.8296L56.0192 40.8939L55.8906 40.9482C55.5941 41.0059 54.9638 40.7034 54.5744 40.2076ZM55.0517 39.8364C55.1778 39.9951 55.3252 40.113 55.4588 40.1969C55.3988 40.0767 55.3108 39.9253 55.2058 39.7625C55.0715 39.5615 54.8833 39.4222 54.7286 39.3424C54.7899 39.4697 54.8962 39.6395 55.0517 39.8364Z" fill="#414042"/>
<path d="M54.5468 40.2269C54.3619 39.9917 53.9307 39.3942 53.9921 38.9939C54.0111 38.8656 54.0723 38.7658 54.1686 38.6958L54.2747 38.6386L54.3453 38.6248C54.7124 38.5535 55.3794 38.8561 55.7347 39.4025C55.9516 39.7267 56.2967 40.3337 56.23 40.669L56.1698 40.8492L56.0523 40.9234L55.9095 40.9804C55.5932 41.0492 54.9572 40.7552 54.5468 40.2269Z" fill="#414042"/>
<path d="M54.3152 40.4116C53.9943 40.005 53.6238 39.4177 53.694 38.9498C53.7275 38.7454 53.8315 38.564 54.0254 38.4311L54.1316 38.3738L54.2912 38.3281C54.8348 38.2225 55.5957 38.6314 55.9916 39.2358C56.4183 39.8856 56.5975 40.3929 56.5208 40.7522L56.4304 41.0408L56.1672 41.1946L55.9764 41.2683C55.499 41.3757 54.7564 40.9853 54.3152 40.4116ZM55.9376 40.6164C55.9637 40.4868 55.8388 40.1081 55.4862 39.5759C55.184 39.1144 54.6408 38.8829 54.4078 38.9282L54.3456 38.9476C54.3131 38.9686 54.2974 39.001 54.2915 39.0461C54.2623 39.2349 54.4646 39.6352 54.7868 40.0488C55.137 40.4936 55.6563 40.7151 55.8426 40.6935L55.9246 40.6629L55.9376 40.6164Z" fill="#414042"/>
<path d="M50.0871 45.709C50.1091 45.5582 50.6425 45.5132 51.2626 45.6124C51.8827 45.7117 52.3782 45.8865 52.3649 46.0063C52.3445 46.1275 51.7887 46.3967 51.157 46.351C50.5311 46.2968 50.0581 45.8612 50.0871 45.709Z" fill="#414042"/>
<path d="M51.1471 46.6472C50.5972 46.6076 50.1291 46.3103 49.9245 46.0496C49.8181 45.9165 49.7779 45.7851 49.7983 45.6639C49.8173 45.5356 49.9155 45.3627 50.2544 45.2968C50.5156 45.246 50.9049 45.2509 51.3207 45.3167C51.7209 45.3781 52.4169 45.5285 52.606 45.7848L52.6926 45.9292L52.6722 46.0504C52.6138 46.4281 51.9176 46.5781 51.7764 46.6055C51.5646 46.6467 51.3487 46.6667 51.1471 46.6472ZM51.2301 45.9058C50.9877 45.865 50.7733 45.8553 50.6196 45.8559C50.7616 45.9455 50.9529 46.0256 51.1912 46.0452C51.3618 46.056 51.5425 46.0429 51.7176 46.0015C51.5809 45.9768 51.4189 45.935 51.2301 45.9058Z" fill="#414042"/>
<path d="M51.1357 46.6849C50.5703 46.6409 50.1036 46.3507 49.8879 46.0702C49.78 45.93 49.73 45.7858 49.7547 45.6492C49.7781 45.5054 49.882 45.324 50.2421 45.254C50.5103 45.2019 50.901 45.2139 51.3238 45.2782C51.7241 45.3396 52.4342 45.4873 52.6273 45.7648L52.7238 45.9219L52.6991 46.0586C52.6363 46.4518 51.9711 46.6104 51.7734 46.6489C51.5616 46.69 51.3514 46.7016 51.1357 46.6849Z" fill="#414042"/>
<path d="M51.119 46.9827C50.4197 46.9281 49.8941 46.5614 49.6518 46.2568C49.4459 45.9891 49.4302 45.7577 49.4592 45.6055C49.4798 45.4476 49.606 45.0788 50.1849 44.9662C50.4885 44.9072 50.9073 44.9137 51.3682 44.9853C52.1687 45.1081 52.6697 45.3111 52.8896 45.6128L53.0419 45.8689L52.9998 46.1042C52.9079 46.6496 52.2312 46.8618 51.8358 46.9386C51.5887 46.9866 51.3502 47.0037 51.119 46.9827ZM52.3885 45.9373C52.3367 45.8594 52.0329 45.6914 51.2775 45.5744C50.642 45.4708 50.0803 45.5214 50.0568 45.7018C50.0466 45.7624 50.0899 45.8346 50.1291 45.8856C50.2958 46.1023 50.6951 46.3471 51.1716 46.3863C51.3506 46.4028 51.5383 46.3883 51.729 46.3512C52.1384 46.2717 52.3945 46.1193 52.4163 46.0052L52.4193 45.9826L52.3885 45.9373Z" fill="#414042"/>
<path d="M66.789 39.1533C66.9169 39.2457 66.6844 39.7085 66.27 40.1774C65.864 40.6519 65.4504 40.9741 65.3493 40.9058C65.2538 40.8292 65.2922 40.2355 65.6574 39.7396C66.0212 39.2366 66.6598 39.0539 66.789 39.1533Z" fill="#414042"/>
<path d="M65.2793 41.2283L65.1683 41.1473C64.841 40.8959 65.04 40.0732 65.4166 39.5604C65.7349 39.1248 66.2044 38.9017 66.508 38.8427C66.7057 38.8043 66.8636 38.8249 66.9675 38.9072C67.0532 38.9712 67.1091 39.0702 67.1169 39.1859C67.1642 39.5797 66.6544 40.199 66.4983 40.3759C66.3422 40.5528 65.8185 41.1381 65.4655 41.2067L65.2793 41.2283ZM65.9112 39.9185C65.7947 40.073 65.7233 40.2335 65.6774 40.3743C65.7823 40.2733 65.9113 40.1456 66.049 39.987C66.2051 39.8101 66.3203 39.6485 66.3915 39.5248C66.2218 39.5944 66.0434 39.7316 65.9112 39.9185Z" fill="#414042"/>
<path d="M65.2909 41.2666L65.1715 41.1799C64.8273 40.9171 65.0223 40.0732 65.4102 39.5436C65.7342 39.0996 66.2108 38.8751 66.5215 38.8147C66.7262 38.7749 66.8925 38.8012 67.0119 38.8879C67.106 38.9575 67.1633 39.0636 67.1725 39.1864C67.2127 39.5815 66.7483 40.17 66.5453 40.4073C66.348 40.6362 65.8457 41.1807 65.4927 41.2493L65.2909 41.2666Z" fill="#414042"/>
<path d="M65.209 41.5762L64.9954 41.4199C64.4461 41.0065 64.7523 39.9432 65.1744 39.3629C65.5439 38.8515 66.0869 38.5921 66.4752 38.5166C66.8424 38.4452 67.0746 38.5466 67.2038 38.6461C67.3654 38.7612 67.4687 38.9536 67.486 39.1554C67.5328 39.6225 67.1319 40.1987 66.7856 40.603C66.2945 41.1674 65.8865 41.4812 65.5618 41.5443L65.5477 41.547L65.209 41.5762ZM65.6535 39.7167C65.2883 40.2127 65.2271 40.84 65.3549 40.9324L65.4536 40.9499C65.5863 40.9167 65.8893 40.704 66.3208 40.2098C66.6672 39.8054 66.8965 39.4019 66.8749 39.2156C66.8751 39.1789 66.8541 39.1463 66.8274 39.1222C66.7839 39.0867 66.6951 39.082 66.575 39.1053C66.3068 39.1575 65.9078 39.3669 65.6535 39.7167Z" fill="#414042"/>
<path d="M51.5868 41.8163C51.6707 41.6828 52.1719 41.8491 52.6991 42.1863C53.2248 42.5164 53.5953 42.8766 53.5257 42.9708C53.4588 43.079 52.8422 43.1109 52.288 42.823C51.7409 42.5337 51.4944 41.9442 51.5868 41.8163Z" fill="#414042"/>
<path d="M52.1527 43.0844C51.6716 42.8335 51.3722 42.3862 51.295 42.0642C51.255 41.8961 51.2642 41.7551 51.3382 41.6455C51.378 41.5865 51.4574 41.5051 51.5986 41.4776C51.9869 41.4022 52.6589 41.8064 52.8586 41.9288C53.1931 42.1422 53.7622 42.5444 53.8324 42.8678L53.8498 43.0329L53.7816 43.1341C53.7204 43.2339 53.6143 43.2912 53.459 43.3214C53.1568 43.3875 52.6267 43.3366 52.1527 43.0844ZM52.4306 42.5541C52.6022 42.6453 52.7881 42.6971 52.9403 42.7262C52.8363 42.6438 52.7001 42.5457 52.5328 42.439C52.3149 42.2982 52.1292 42.2098 51.9857 42.1497C52.078 42.2856 52.2267 42.4472 52.4306 42.5541Z" fill="#414042"/>
<path d="M52.1352 43.1166C51.6457 42.86 51.3378 42.407 51.2579 42.0709C51.2081 41.89 51.23 41.7392 51.3097 41.6212C51.3722 41.5284 51.4756 41.457 51.5956 41.4337C51.998 41.3555 52.6856 41.764 52.8852 41.8864C53.2211 42.1069 53.7973 42.5077 53.8702 42.8452L53.8918 43.0316L53.8121 43.1496C53.7452 43.2579 53.6321 43.3165 53.4627 43.3494C53.1477 43.4253 52.6176 43.3745 52.1352 43.1166Z" fill="#414042"/>
<path d="M52.0028 43.3854C51.3909 43.0647 51.0638 42.5128 50.977 42.1414C50.8913 41.8137 50.9786 41.5843 51.0696 41.4493C51.1776 41.2891 51.3475 41.1829 51.5452 41.1444C51.997 41.0566 52.6146 41.3688 53.0489 41.6434C54.061 42.2893 54.1422 42.6691 54.171 42.8174L54.2074 43.118L54.0709 43.3204C53.9585 43.4961 53.7746 43.6051 53.5275 43.6532C53.19 43.7261 52.5836 43.6974 52.0028 43.3854ZM53.5752 42.9186C53.556 42.8197 53.3501 42.552 52.7231 42.1537C52.1721 41.8065 51.6652 41.6486 51.5614 41.7933C51.5273 41.8439 51.5381 41.9371 51.5575 41.9993C51.6238 42.2648 51.8798 42.64 52.2806 42.8551C52.8278 43.1444 53.4654 43.1451 53.5677 42.9933L53.5848 42.968L53.5752 42.9186Z" fill="#414042"/>
<path d="M24.6778 95.5438C23.5581 96.5307 22.8238 97.201 22.0882 97.8642C21.3596 98.526 20.6239 99.1892 19.5113 100.175L20.5067 101.3C21.6264 100.313 22.3607 99.6429 23.0949 98.9726C23.8235 98.3108 24.5521 97.649 25.6661 96.6705L24.6778 95.5438Z" fill="#414042"/>
<path d="M30.1609 100.599L25.8945 106.848L27.1359 107.695L31.4023 101.447L30.1609 100.599Z" fill="#414042"/>
<path d="M35.7197 103.882L33.7853 110.515L35.2433 110.854L37.1849 104.22L35.7197 103.882Z" fill="#414042"/>
<path d="M112.52 119.051C113.905 118.489 114.819 118.099 115.733 117.716C116.641 117.335 117.554 116.945 118.927 116.392L118.363 115C116.978 115.562 116.063 115.945 115.15 116.335C114.242 116.716 113.335 117.098 111.956 117.659L112.52 119.051Z" fill="#414042"/>
<path d="M114.275 106.793L108.18 111.276L109.07 112.487L115.165 108.004L114.275 106.793Z" fill="#414042"/>
<path d="M104.882 107.52L108.904 101.902L107.642 101.1L103.611 106.712L104.882 107.52Z" fill="#414042"/>
<path d="M62.4443 57.3945C63.0938 57.2683 63.2945 56.6798 63.1682 56.0302L61.9784 49.9092C61.8521 49.2596 61.4456 48.7892 60.7961 48.9154C60.1466 49.0417 59.9389 49.6316 60.0651 50.2811L61.2549 56.4021C61.3896 57.0573 61.7947 57.5208 62.4443 57.3945Z" fill="#414042"/>
<path d="M99.7226 80.747C100.261 83.5145 98.4518 86.196 95.6843 86.734L44.5485 96.6738C41.7809 97.2117 39.0994 95.4031 38.5615 92.6355L33.4509 66.3439C32.913 63.5764 34.7216 60.8949 37.4892 60.3569L88.625 50.4171C91.3926 49.8792 94.0741 51.6879 94.612 54.4554L99.7226 80.747ZM92.7276 54.9756C92.379 53.1823 90.649 52.0093 88.8557 52.3579L38.0023 62.2428C36.209 62.5913 35.0444 64.327 35.393 66.1203L40.4473 92.1224C40.7959 93.9157 42.5316 95.0803 44.3178 94.7331L95.1712 84.8482C96.9644 84.4996 98.1291 82.7639 97.7819 80.9777L92.7276 54.9756Z" fill="#414042"/>
<path fill-rule="evenodd" clip-rule="evenodd" d="M32.7942 73.1262C28.0145 74.0553 26.6961 77.1104 27.3425 80.4357C27.9888 83.7609 30.3557 86.0997 35.1354 85.1706L32.7942 73.1262Z" fill="#414042"/>
<path fill-rule="evenodd" clip-rule="evenodd" d="M100.122 72.5386C104.902 71.6095 106.221 68.5544 105.574 65.2291C104.928 61.9038 102.561 59.5651 97.7812 60.4941L100.122 72.5386Z" fill="#414042"/>
<path d="M95.8653 96.569L95.5469 94.9311C110.206 98.9175 117.281 106.254 121.218 121.608L121.246 122.24L120.611 122.517C119.42 123.063 118.058 121.899 117.192 122.156C117.892 121.946 118.804 121.703 119.624 121.361C115.833 107.099 109.496 100.389 95.8653 96.569Z" fill="#414042"/>
<path d="M97.05 102.697C103.214 103.8 110.352 107.958 115.224 122.845C116.046 122.509 116.612 122.333 117.276 122.131C116.417 122.386 115.969 124.077 114.881 124.582L114.072 124.944L114.058 124.082C111.497 115.92 107.696 106.504 97.3572 104.315L97.043 102.699L97.05 102.697Z" fill="#414042"/>
<path d="M19.2987 94.1366C18.7082 94.5664 18.3973 94.9273 17.7354 95.5175C26.073 107.766 34.3711 111.934 49.031 110.836L49.3192 112.318C33.6868 113.54 24.8637 108.895 16.1314 95.822L15.7951 95.1473L15.9769 94.9142C16.9226 94.0123 18.5666 94.6672 19.2987 94.1366Z" fill="#414042"/>
<path d="M19.4259 94.1119C20.1524 93.5897 19.8244 91.9023 20.6949 91.0664L21.3047 90.4716L22.0714 91.0992C27.6379 98.5529 35.3349 106.677 47.6151 103.513L47.9033 104.996C41.29 106.706 32.1078 106.659 21.3718 92.6639C20.7028 93.2556 19.991 93.7017 19.4259 94.1119Z" fill="#414042"/>
<path d="M22.5899 91.7975L16.5657 96.4633L15.5029 95.0287L21.4935 90.3034L22.5899 91.7975Z" fill="#414042"/>
<path fill-rule="evenodd" clip-rule="evenodd" d="M97.6996 116.314C97.985 117.782 97.0295 119.199 95.561 119.484L56.9073 126.998C55.4459 127.282 54.0222 126.328 53.7367 124.859L49.1957 101.498C48.9102 100.029 49.8658 98.6124 51.3343 98.327L89.988 90.8134C91.4565 90.528 92.8731 91.4835 93.1585 92.952L97.6996 116.314Z" fill="#414042"/>
<path d="M95.3359 93.9075L101.786 95.7676C102.28 95.8986 102.459 96.4426 102.351 96.94L100.282 105.673C100.167 106.171 99.9018 106.428 99.4074 106.297L97.6375 105.71L95.343 93.9061L95.3359 93.9075Z" fill="#414042"/>
<path d="M40.7398 104.067C40.6776 103.559 41.3066 103.063 41.8118 103.023L47.4323 102.575L49.5072 113.25L43.0274 113.762C42.5151 113.803 41.9247 113.442 41.8696 112.932L40.7398 104.067Z" fill="#414042"/>
<path d="M60.5298 50.1988C62.4043 49.9664 63.7295 48.2654 63.4984 46.398C63.2659 44.5236 61.5649 43.1984 59.6962 43.4224C57.8217 43.6549 56.4965 45.3558 56.7276 47.2232C56.953 49.099 58.654 50.4242 60.5298 50.1988ZM58.6176 46.9951C58.5162 46.1722 59.1028 45.4207 59.9257 45.3194C60.7486 45.218 61.5 45.8047 61.6014 46.6275C61.7027 47.4504 61.1161 48.2019 60.2932 48.3032C59.469 48.3975 58.7175 47.8109 58.6176 46.9951Z" fill="#414042"/>
<path fill-rule="evenodd" clip-rule="evenodd" d="M73.614 99.6576C78.1355 99.5114 81.5248 103.454 81.1972 108.478C80.8668 113.488 76.9328 117.674 72.4127 117.827C67.8925 117.98 64.4948 114.032 64.8308 109.014C65.1598 103.997 69.0924 99.8038 73.614 99.6576Z" fill="#ED1B2F"/>
<path fill-rule="evenodd" clip-rule="evenodd" d="M72.3797 106.383L71.3207 106.589L70.968 104.775L72.0341 104.568L71.5264 101.955L73.6302 101.546L74.138 104.159L77.3927 103.526L77.7454 105.34L74.4907 105.973L75.2468 109.863C75.3278 110.28 75.5103 111.219 75.7498 111.546C75.8884 111.731 76.0669 111.858 76.2922 111.924C76.5852 111.999 76.9309 111.968 77.2275 111.911C77.8699 111.786 78.3528 111.443 78.8513 111.067L78.8938 111.286L79.2575 113.157L79.0157 113.27C78.4232 113.539 77.8057 113.754 77.1632 113.879C74.9181 114.316 73.6999 113.175 73.291 111.071L72.3797 106.383ZM72.2561 114.643L70.1451 115.053L68.25 105.303L70.3609 104.893L72.2561 114.643Z" fill="white"/>
<path fill-rule="evenodd" clip-rule="evenodd" d="M68.7139 101.929C69.427 101.79 70.1227 102.241 70.2572 102.933C70.3904 103.618 69.9212 104.295 69.2011 104.435C68.4881 104.574 67.8007 104.128 67.6662 103.437C67.5233 102.739 68.0009 102.067 68.7139 101.929Z" fill="white"/>
<path d="M16.1254 73.1649L-0.128906 85.5709L8.7294 97.1771L24.9837 84.7711L16.1254 73.1649Z" fill="#414042"/>
<path d="M16.8225 72.738L15.3779 80.0818L13.9923 86.938L7.02677 86.4969L-0.24733 85.9765" fill="#414042"/>
<path d="M14.9436 88.0857L-0.222006 86.469L-0.274501 85.4828L13.5943 86.421L16.3491 72.5874L17.2883 72.8958L14.9436 88.0857Z" fill="white"/>
<path d="M53.8445 63.8433C50.5686 64.4801 48.4301 67.6507 49.0654 70.9195C49.7022 74.1953 52.8728 76.3339 56.1486 75.6971C59.4174 75.0618 61.5574 71.8982 60.9192 68.6153C60.2895 65.3381 57.1203 63.2066 53.8445 63.8433ZM55.9455 74.6523C53.2486 75.1765 50.6346 73.4133 50.1103 70.7164C49.5861 68.0194 51.3506 65.4125 54.0476 64.8882C56.7374 64.3654 59.3501 66.1215 59.8744 68.8184C60.4057 71.514 58.6424 74.128 55.9455 74.6523Z" fill="#414042"/>
<path d="M57.6414 69.2492C57.9268 70.7177 56.9656 72.1428 55.4971 72.4282C54.0286 72.7137 52.6036 71.7524 52.3182 70.2839C52.0327 68.8155 52.9939 67.3904 54.4624 67.105C55.9309 66.8195 57.356 67.7807 57.6414 69.2492Z" fill="#414042"/>
<path d="M73.8453 59.9558C70.5694 60.5926 68.4379 63.7618 69.0733 67.0306C69.71 70.3064 72.8806 72.445 76.1494 71.8096C79.4182 71.1742 81.5582 68.0107 80.92 64.7278C80.2833 61.4519 77.1141 59.3204 73.8453 59.9558ZM75.9463 70.7647C73.2494 71.2889 70.6353 69.5258 70.1111 66.8288C69.5869 64.1319 71.3514 61.5249 74.0484 61.0007C76.7382 60.4778 79.3509 62.2339 79.8752 64.9309C80.3994 67.6278 78.6362 70.2419 75.9463 70.7647Z" fill="#414042"/>
<path d="M84.8284 72.8478C73.0641 79.4574 62.8059 81.4514 49.4153 79.7315C48.2867 79.5039 47.4523 80.1496 47.5678 81.2336C47.7046 82.5404 47.7744 83.2009 47.9112 84.5078C48.0266 85.5917 48.0895 86.4807 50.2337 86.9578C64.0458 88.735 74.6359 86.6765 86.7694 79.856C88.3084 78.8022 88.3126 77.7683 88.0122 76.713C87.6495 75.45 87.4667 74.8115 87.104 73.5485C86.8064 72.5073 85.7966 72.2127 84.8284 72.8478ZM49.9911 85.1439C49.6022 85.0657 49.26 84.6999 49.2182 84.3343C49.073 83.0218 49.095 82.871 48.9498 81.5584C48.9094 81.1999 49.1871 80.9701 49.5689 81.0497C51.2245 81.3873 52.0546 81.5117 53.7109 81.7026C53.952 83.5461 53.9751 83.9665 54.2162 85.81C52.5303 85.6175 51.6833 85.4817 49.9911 85.1439ZM55.6288 85.953C55.3793 84.1039 55.3505 83.6919 55.0939 81.8441C57.306 82.0296 58.4103 82.0567 60.6097 81.9882C60.9086 83.8277 60.9613 84.2498 61.2546 86.0977C59.0115 86.1674 57.8846 86.1373 55.6288 85.953ZM62.6485 86.0319C62.3411 84.1867 62.2814 83.766 61.974 81.9208C64.161 81.7888 65.2492 81.6579 67.401 81.2689C67.7507 83.1059 67.8317 83.5224 68.1828 85.3665C65.9887 85.7636 64.8793 85.8987 62.6485 86.0319ZM69.5454 85.1016C69.1815 83.2674 69.1006 82.8508 68.7353 81.0095C70.6078 80.6162 71.5274 80.3716 73.3557 79.789C73.7549 81.6164 73.8571 82.0288 74.2633 83.8548C72.394 84.4527 71.4532 84.7015 69.5454 85.1016ZM75.5845 83.4148C75.1783 81.5888 75.0691 81.1778 74.6558 79.3532C76.4661 78.7155 77.3624 78.3508 79.1145 77.5267C79.5617 79.3374 79.6836 79.7386 80.1309 81.5493C78.3391 82.3958 77.4301 82.7703 75.5845 83.4148ZM86.7424 77.0404C86.8406 77.395 86.6533 77.8637 86.3291 78.0805C84.4068 79.3481 83.4262 79.9197 81.405 80.9427C80.9437 79.1347 80.8147 78.7348 80.3618 76.9325C82.3433 75.9319 83.3112 75.3701 85.1882 74.1334C85.5124 73.9165 85.8475 74.0199 85.9528 74.3731C86.3014 75.6388 86.3853 75.769 86.7424 77.0404Z" fill="#414042"/>
<path d="M77.6492 65.3615C77.9347 66.83 76.9734 68.2551 75.5049 68.5405C74.0364 68.826 72.6114 67.8647 72.326 66.3963C72.0405 64.9278 73.0017 63.5027 74.4702 63.2173C75.9387 62.9318 77.3638 63.893 77.6492 65.3615Z" fill="#414042"/>
</g>
<defs>
<filter id="filter0_f_2250_58935" x="-9.19922" y="92.8" width="136" height="58" filterUnits="userSpaceOnUse" color-interpolation-filters="sRGB">
<feFlood flood-opacity="0" result="BackgroundImageFix"/>
<feBlend mode="normal" in="SourceGraphic" in2="BackgroundImageFix" result="shape"/>
<feGaussianBlur stdDeviation="10" result="effect1_foregroundBlur_2250_58935"/>
</filter>
<clipPath id="clip0_2250_58935">
<rect width="120" height="120" fill="white"/>
</clipPath>
</defs>
</svg>
